<svg width="787" height="787" viewBox="0 0 787 787" fill="none" xmlns="http://www.w3.org/2000/svg">
<g clip-path="url(#clip0_1_11)">
<path d="M393.5 0C175.845 0 0 176.3 0 393.5C0 611.155 176.3 787 393.5 787C611.155 787 787 610.7 787 393.5C787 176.3 610.7 0 393.5 0ZM574.018 567.919C566.972 579.675 551.921 582.958 540.165 575.912C447.545 519.494 331.425 506.803 194.131 537.828C180.973 540.657 167.815 532.664 164.987 519.506C162.159 506.348 170.152 493.191 183.31 490.362C333.282 456.054 462.08 470.614 565.521 534.09C568.307 535.75 570.738 537.944 572.673 540.547C574.608 543.15 576.008 546.11 576.795 549.257C577.581 552.403 577.737 555.674 577.255 558.881C576.772 562.088 575.659 565.168 573.981 567.943L574.018 567.919ZM621.976 460.727C613.048 475.299 594.234 479.541 579.675 471.056C473.897 406.178 312.636 387.376 187.589 424.98C171.136 429.677 154.215 420.75 149.505 404.764C144.808 388.311 153.736 371.39 170.189 366.681C313.103 323.432 490.817 344.116 612.581 418.868C626.686 427.329 630.903 446.131 621.988 460.715L621.976 460.727ZM626.206 348.825C499.265 273.605 290.059 266.559 168.762 303.229C149.481 309.34 128.797 298.064 122.686 278.782C116.574 259.501 127.851 238.818 147.132 232.706C286.296 190.405 517.6 198.853 663.355 285.361C680.755 295.691 686.387 318.268 676.045 335.655C666.638 353.523 643.606 359.167 626.206 348.813V348.825Z" fill="#621ED7"/>
</g>
<defs>
<clipPath id="clip0_1_11">
<rect width="787" height="787" fill="white"/>
</clipPath>
</defs>
</svg>
